<?xml version="1.0" encoding="utf-8"?>
<!-- Generator: Adobe Illustrator 16.0.4, SVG Export Plug-In . SVG Version: 6.00 Build 0)  -->
<!DOCTYPE svg PUBLIC "-//W3C//DTD SVG 1.1//EN" "http://www.w3.org/Graphics/SVG/1.1/DTD/svg11.dtd">
<svg version="1.1" xmlns="http://www.w3.org/2000/svg" xmlns:xlink="http://www.w3.org/1999/xlink" x="0px" y="0px" width="23px"
	 height="17.167px" viewBox="169.5 47.5 23 17.167" enable-background="new 169.5 47.5 23 17.167" xml:space="preserve">
<g id="Layer_2">
</g>
<g id="Layer_1">
	<g>
		<path fill="#E6FCFA" d="M174.104,51.656h3.37c0.308,0,0.562,0.253,0.562,0.562v2.391c0,0.29-0.254,0.543-0.562,0.543h-3.37
			c-0.163,0-0.29-0.054-0.398-0.163c0,0-0.163-0.145-0.163-0.38v-2.391C173.542,51.91,173.795,51.656,174.104,51.656z
			 M175.879,53.884L175.879,53.884c-0.055,0.037-0.127,0.037-0.181,0l0,0c-0.634-0.562-1.25-1.123-1.884-1.685v2.409
			c0,0.072,0.037,0.145,0.091,0.199l0,0c0.054,0.036,0.109,0.073,0.199,0.073h3.37c0.163,0,0.29-0.127,0.29-0.272V52.2
			C177.129,52.761,176.495,53.323,175.879,53.884z M173.958,51.964l1.83,1.63l1.83-1.63c-0.054-0.018-0.09-0.036-0.145-0.036h-3.37
			C174.049,51.928,173.995,51.946,173.958,51.964z"/>
		<path fill="#E6FCFA" d="M172.908,50.75c-0.037-0.145-0.037-0.236,0.054-0.326s0.253-0.09,0.362,0
			c0.181,0.181,0.181,0.543,0.181,0.906c-0.362,0-0.725,0-0.906-0.181c-0.109-0.09-0.109-0.253,0-0.362
			C172.69,50.696,172.781,50.696,172.908,50.75z"/>
		<path fill="#E6FCFA" d="M174.176,50.678c-0.036-0.09-0.036-0.145,0.037-0.217c0.054-0.073,0.181-0.073,0.253,0
			c0.127,0.126,0.127,0.38,0.127,0.634c-0.254,0-0.507,0-0.634-0.127c-0.072-0.072-0.072-0.181,0-0.254
			C174.013,50.66,174.085,50.66,174.176,50.678z"/>
	</g>
</g>
</svg>
