<?xml version="1.0" encoding="utf-8"?>
<!-- Generator: Adobe Illustrator 16.0.4, SVG Export Plug-In . SVG Version: 6.00 Build 0)  -->
<!DOCTYPE svg PUBLIC "-//W3C//DTD SVG 1.1//EN" "http://www.w3.org/Graphics/SVG/1.1/DTD/svg11.dtd">
<svg version="1.1" xmlns="http://www.w3.org/2000/svg" xmlns:xlink="http://www.w3.org/1999/xlink" x="0px" y="0px" width="23px"
	 height="17.167px" viewBox="169.5 47.5 23 17.167" enable-background="new 169.5 47.5 23 17.167" xml:space="preserve">
<g id="Layer_2">
</g>
<g id="Layer_1">
	<g>
		<path fill="#E6FCFA" d="M176.665,53.756h8.814c0.806,0,1.469,0.664,1.469,1.469v6.255c0,0.758-0.664,1.422-1.469,1.422h-8.814
			c-0.426,0-0.758-0.142-1.042-0.426c0,0-0.426-0.379-0.426-0.996v-6.255C175.196,54.42,175.859,53.756,176.665,53.756z
			 M181.31,59.585L181.31,59.585c-0.143,0.095-0.332,0.095-0.474,0l0,0c-1.659-1.469-3.27-2.938-4.929-4.407v6.303
			c0,0.189,0.095,0.379,0.237,0.521l0,0c0.142,0.095,0.285,0.189,0.521,0.189h8.814c0.426,0,0.758-0.332,0.758-0.711v-6.303
			C184.579,56.647,182.92,58.116,181.31,59.585z M176.286,54.562l4.787,4.265l4.786-4.265c-0.142-0.047-0.237-0.095-0.379-0.095
			h-8.814C176.523,54.467,176.381,54.515,176.286,54.562z"/>
		<path fill="#E6FCFA" d="M173.538,51.387c-0.095-0.379-0.095-0.616,0.142-0.853c0.237-0.236,0.664-0.236,0.948,0
			c0.474,0.474,0.474,1.422,0.474,2.37c-0.948,0-1.896,0-2.37-0.474c-0.285-0.237-0.285-0.664,0-0.948
			C172.969,51.245,173.206,51.245,173.538,51.387z"/>
		<path fill="#E6FCFA" d="M176.854,51.197c-0.095-0.237-0.095-0.379,0.095-0.568c0.142-0.19,0.474-0.19,0.663,0
			c0.332,0.332,0.332,0.995,0.332,1.658c-0.664,0-1.327,0-1.659-0.332c-0.189-0.189-0.189-0.474,0-0.664
			C176.428,51.15,176.618,51.15,176.854,51.197z"/>
	</g>
</g>
</svg>
